<svg xmlns="http://www.w3.org/2000/svg" viewBox="0 0 320 220">
  <rect width="320" height="220" rx="28" fill="#fff8f2"/>
  <path d="M84 144c0-37 28-68 79-68 56 0 89 35 89 72 0 32-30 56-76 56-55 0-92-24-92-60z" fill="#d67279"/>
  <circle cx="241" cy="145" r="22" fill="#f4e7d8"/>
  <circle cx="241" cy="145" r="10" fill="#d0bca7"/>
  <path d="M84 144c9 9 27 16 48 16 61 0 96-35 120-61-7 45-43 84-109 84-29 0-50-15-59-39z" fill="#c75963"/>
  <ellipse cx="128" cy="117" rx="15" ry="10" fill="#efadb4" opacity=".45"/>
</svg>
